<?xml version="1.0" standalone="no"?>
<!DOCTYPE svg PUBLIC "-//W3C//DTD SVG 20010904//EN"
 "http://www.w3.org/TR/2001/REC-SVG-20010904/DTD/svg10.dtd">
<svg version="1.0" xmlns="http://www.w3.org/2000/svg"
 width="1024.000000pt" height="1024.000000pt" viewBox="0 0 1024.000000 1024.000000"
 preserveAspectRatio="xMidYMid meet">

<g transform="translate(0.000000,1024.000000) scale(0.100000,-0.100000)"
fill="#000000" stroke="none">
<path d="M4798 10219 c-976 -62 -1938 -419 -2723 -1009 -361 -271 -698 -604
-980 -965 -107 -137 -310 -441 -401 -600 -999 -1759 -859 -3965 356 -5580 153
-203 250 -316 445 -513 278 -283 496 -464 815 -676 707 -471 1455 -738 2325
-832 225 -25 775 -25 1000 0 314 34 619 91 884 166 722 205 1382 561 1961
1059 140 121 445 430 559 566 604 725 989 1565 1135 2476 49 303 60 450 60
814 0 254 -5 380 -18 500 -44 414 -123 779 -246 1139 -213 626 -540 1195 -979
1706 -121 140 -430 445 -566 559 -859 715 -1876 1121 -2980 1191 -182 11 -460
11 -647 -1z m765 -244 c905 -80 1750 -401 2483 -945 342 -254 728 -639 990
-990 476 -635 795 -1397 913 -2181 69 -458 69 -1010 0 -1468 -318 -2110 -1996
-3777 -4111 -4086 -316 -46 -804 -59 -1130 -30 -783 69 -1526 320 -2183 738
-1189 758 -1996 1994 -2204 3378 -69 458 -69 1010 0 1468 318 2113 1999 3780
4118 4087 311 44 803 57 1124 29z"/>
<path d="M5225 8520 c-343 -31 -667 -111 -945 -235 -640 -283 -1131 -815
-1413 -1530 -115 -291 -149 -433 -277 -1132 -157 -867 -173 -999 -174 -1428 0
-311 11 -431 60 -667 128 -613 440 -1089 924 -1413 197 -131 499 -257 775
-323 598 -143 1308 -95 1865 125 697 275 1215 815 1354 1411 l14 62 -403 0
-402 0 -7 -32 c-4 -18 -27 -74 -51 -125 -167 -342 -552 -620 -1020 -734 -174
-42 -298 -59 -490 -66 -922 -33 -1552 394 -1769 1197 -57 213 -70 330 -71 645
0 289 11 434 49 620 l12 60 2216 3 2215 2 6 33 c39 223 119 710 132 807 23
174 31 485 16 650 -72 788 -435 1407 -1028 1757 -250 147 -569 251 -914 298
-136 19 -533 27 -674 15z m512 -695 c376 -49 660 -182 899 -420 236 -235 372
-521 430 -905 31 -203 17 -634 -26 -837 l-12 -53 -1823 0 c-1731 0 -1823 1
-1819 18 2 9 29 134 59 276 62 291 105 446 172 616 293 744 850 1208 1563
1304 144 19 412 20 557 1z"/>
</g>
</svg>